<?xml version="1.0" encoding="iso-8859-1"?>
<svg version="1.1" viewBox="0 0 36 20" width="36px" height="20px" xmlns="http://www.w3.org/2000/svg" xmlns:xlink="http://www.w3.org/1999/xlink">
    <g fill="none" fill-rule="evenodd" stroke="none" strokeWidth="1">
        <g>
            <g>
                <path
                    d="M6.409713,-5.17920154e-16 L29.590287,-1.97215226e-31 C31.8190838,-4.09423339e-16 32.6272994,0.232064028 33.4421143,0.667831759 C34.2569291,1.10359949 34.8964005,1.74307093 35.3321682,2.55788574 C35.767936,3.37270056 36,4.18091615 36,6.409713 L36,13.590287 C36,15.8190838 35.767936,16.6272994 35.3321682,17.4421143 C34.8964005,18.2569291 34.2569291,18.8964005 33.4421143,19.3321682 C32.6272994,19.767936 31.8190838,20 29.590287,20 L6.409713,20 C4.18091615,20 3.37270056,19.767936 2.55788574,19.3321682 C1.74307093,18.8964005 1.10359949,18.2569291 0.667831759,17.4421143 C0.232064028,16.6272994 -7.23312098e-17,15.8190838 -3.45280103e-16,13.590287 L-2.46519033e-32,6.409713 C-2.72948893e-16,4.18091615 0.232064028,3.37270056 0.667831759,2.55788574 C1.10359949,1.74307093 1.74307093,1.10359949 2.55788574,0.667831759 C3.37270056,0.232064028 4.18091615,-1.08496815e-16 6.409713,-5.17920154e-16 Z M11.3684211,13.3333333 L12.9145263,13.3333333 L13.5397895,11.8019048 L16.4614737,11.8019048 L17.0753684,13.3333333 L18.7237895,13.3333333 L15.5633684,5.71047619 L14.4833684,5.71047619 L11.3684211,13.3333333 Z M22.9755789,13.3333333 L24.3284211,13.3333333 L24.3284211,5.71047619 L22.8505263,5.71047619 L22.8505263,7.84761905 C22.509472,7.74095185 22.1835805,7.68761905 21.8728421,7.68761905 C21.410524,7.68761905 21.0088438,7.76952299 20.6677895,7.93333333 C20.3267351,8.09714368 20.0425275,8.31428436 19.8151579,8.5847619 C19.5877883,8.85523945 19.4172637,9.16190305 19.3035789,9.5047619 C19.1898942,9.84762076 19.1330526,10.1980934 19.1330526,10.5561905 C19.1330526,10.9371448 19.1861047,11.3028554 19.2922105,11.6533333 C19.3983163,12.0038113 19.5555779,12.3123796 19.764,12.5790476 C19.9724221,12.8457156 20.2301037,13.0590468 20.5370526,13.2190476 C20.8440015,13.3790484 21.1945243,13.4590476 21.5886316,13.4590476 C21.891791,13.4590476 22.1532621,13.4038101 22.3730526,13.2933333 C22.5928432,13.1828566 22.7709467,13.0552388 22.9073684,12.9104762 L22.9755789,13.3333333 Z M14.0058947,10.5104762 L14.9835789,8.00761905 L15.9612632,10.5104762 L14.0058947,10.5104762 Z M22.8505263,9.04761905 L22.8505263,11.767619 C22.7671575,11.8971435 22.6307378,12.0095233 22.4412632,12.1047619 C22.2517885,12.2000005 22.0661062,12.247619 21.8842105,12.247619 C21.656841,12.247619 21.461685,12.2000005 21.2987368,12.1047619 C21.1357887,12.0095233 21.0012637,11.8838103 20.8951579,11.727619 C20.7890521,11.5714278 20.7094739,11.3885725 20.6564211,11.1790476 C20.6033682,10.9695228 20.5768421,10.7504773 20.5768421,10.5219048 C20.5768421,10.3161894 20.6071576,10.1161914 20.6677895,9.92190476 C20.7284214,9.72761808 20.8193678,9.55238173 20.9406316,9.39619048 C21.0618953,9.23999922 21.2153675,9.11619093 21.4010526,9.0247619 C21.5867378,8.93333288 21.8046303,8.88761905 22.0547368,8.88761905 C22.3048434,8.88761905 22.5701039,8.94095185 22.8505263,9.04761905 Z"
                    fill="#212121"
                    fill-rule="nonzero"
                    opacity="0.55"
                />
                <path
                    d="M11.3684211,13.3333333 L14.4833684,5.71047619 L15.5633684,5.71047619 L18.7237895,13.3333333 L17.0753684,13.3333333 L16.4614737,11.8019048 L13.5397895,11.8019048 L12.9145263,13.3333333 L11.3684211,13.3333333 Z M14.0058947,10.5104762 L15.9612632,10.5104762 L14.9835789,8.00761905 L14.0058947,10.5104762 Z M22.9755789,13.3333333 L22.9073684,12.9104762 C22.7709467,13.0552388 22.5928432,13.1828566 22.3730526,13.2933333 C22.1532621,13.4038101 21.891791,13.4590476 21.5886316,13.4590476 C21.1945243,13.4590476 20.8440015,13.3790484 20.5370526,13.2190476 C20.2301037,13.0590468 19.9724221,12.8457156 19.764,12.5790476 C19.5555779,12.3123796 19.3983163,12.0038113 19.2922105,11.6533333 C19.1861047,11.3028554 19.1330526,10.9371448 19.1330526,10.5561905 C19.1330526,10.1980934 19.1898942,9.84762076 19.3035789,9.5047619 C19.4172637,9.16190305 19.5877883,8.85523945 19.8151579,8.5847619 C20.0425275,8.31428436 20.3267351,8.09714368 20.6677895,7.93333333 C21.0088438,7.76952299 21.410524,7.68761905 21.8728421,7.68761905 C22.1835805,7.68761905 22.509472,7.74095185 22.8505263,7.84761905 L22.8505263,5.71047619 L24.3284211,5.71047619 L24.3284211,13.3333333 L22.9755789,13.3333333 Z M22.8505263,9.04761905 C22.5701039,8.94095185 22.3048434,8.88761905 22.0547368,8.88761905 C21.8046303,8.88761905 21.5867378,8.93333288 21.4010526,9.0247619 C21.2153675,9.11619093 21.0618953,9.23999922 20.9406316,9.39619048 C20.8193678,9.55238173 20.7284214,9.72761808 20.6677895,9.92190476 C20.6071576,10.1161914 20.5768421,10.3161894 20.5768421,10.5219048 C20.5768421,10.7504773 20.6033682,10.9695228 20.6564211,11.1790476 C20.7094739,11.3885725 20.7890521,11.5714278 20.8951579,11.727619 C21.0012637,11.8838103 21.1357887,12.0095233 21.2987368,12.1047619 C21.461685,12.2000005 21.656841,12.247619 21.8842105,12.247619 C22.0661062,12.247619 22.2517885,12.2000005 22.4412632,12.1047619 C22.6307378,12.0095233 22.7671575,11.8971435 22.8505263,11.767619 L22.8505263,9.04761905 Z"
                    fill="#D8D8D8"
                    opacity="0.5"
                />
            </g>
        </g>
    </g>
</svg>
